<svg width="185" height="54" viewBox="0 0 185 54" fill="none" xmlns="http://www.w3.org/2000/svg">
<path d="M36.032 10.024C38.08 10.792 38.656 11.432 38.336 13.544C37.952 16.808 37.376 19.944 36.8 23.08C35.264 31.272 33.664 39.272 32.128 47.528C32 48.36 31.68 48.936 30.656 49.128C27.52 49.768 27.52 49.832 25.664 47.08C24.832 45.736 24.064 44.456 23.168 43.112C22.976 42.792 22.528 42.664 22.208 42.408C23.296 44.584 24.448 46.568 25.664 48.552C25.728 48.872 25.664 49.064 25.6 49.192C25.344 49.128 25.024 49.128 24.96 49C24.128 47.912 23.36 46.888 22.848 45.736C20.416 40.744 18.112 35.624 15.808 30.504C14.208 26.984 12.928 23.272 11.52 19.688C11.136 18.728 11.776 17.512 10.752 16.744C10.56 16.616 10.432 16.424 10.304 16.232C10.24 16.488 9.92 16.616 9.92 16.808C9.728 18.024 9.6 19.176 9.472 20.264C8.512 28.648 7.68 36.904 6.784 45.288C6.656 46.696 6.784 48.168 7.04 49.576C7.168 50.344 7.36 50.856 6.592 51.048C5.632 51.432 4.608 51.112 4.224 50.472C3.776 49.448 3.328 48.296 3.2 47.144C3.072 44.904 3.072 42.6 3.072 40.36C3.072 40.168 2.944 39.784 2.88 39.592C2.752 39.784 2.56 40.04 2.56 40.36C2.496 43.24 2.432 46.12 2.368 49C2.304 49.384 2.368 49.704 2.304 50.024C2.24 50.28 2.048 50.472 1.792 50.6C1.6 50.6 1.088 50.344 1.024 50.088C0.704 49.256 0.384 48.296 0.32 47.4C0.064 45.096 0 42.728 0.064 40.424C0.128 31.656 0.32 22.952 1.728 14.376C2.304 10.792 3.328 7.272 4.16 3.816C4.352 3.176 4.672 2.536 4.928 1.832C5.12 1.512 5.44 1.064 5.568 1.128C7.744 1.576 9.856 0.679996 11.84 2.216C12.352 2.664 12.416 2.984 12.224 3.496C11.776 4.392 12.032 5.16 12.608 5.992C13.248 7.08 13.504 8.36 14.016 9.512C15.232 12.52 16.448 15.528 17.728 18.408V18.536V18.344C19.2 22.376 20.672 26.28 22.208 30.248C23.168 32.744 24.384 35.048 25.472 37.48C25.6 37.8 25.856 37.992 26.112 38.248C26.176 37.928 26.432 37.736 26.496 37.416C27.136 31.912 27.776 26.408 28.608 21.096C28.864 18.984 29.504 17 30.016 15.016C30.016 14.696 30.144 14.568 30.272 14.44C30.4 14.632 30.528 14.952 30.528 15.144C30.912 17.064 30.912 18.92 30.272 20.712C30.912 21.032 31.168 20.648 31.232 20.072C31.744 17.64 32.128 15.336 32.704 12.904C32.768 12.52 32.896 12.136 32.96 11.624C33.28 9.576 33.92 9.32 36.032 10.024ZM3.136 37.8C3.136 37.416 3.072 37.096 3.072 36.712C3.008 36.776 2.88 36.904 2.88 37.16C2.88 37.48 2.88 37.864 2.88 38.248C2.944 38.248 3.008 38.248 3.008 38.312C3.072 38.056 3.136 37.928 3.136 37.8ZM3.136 35.432C3.136 35.432 3.328 35.304 3.2 35.304C3.2 35.24 3.136 35.176 3.072 35.048C3.008 35.176 2.944 35.24 2.88 35.304C2.944 35.368 3.072 35.368 3.136 35.432ZM3.328 33.832C3.328 33.832 3.2 33.768 3.2 33.704C3.136 33.704 3.136 33.768 3.072 33.832L3.136 33.96C3.2 33.96 3.328 33.96 3.328 33.832ZM3.328 31.144C3.392 31.016 3.456 30.952 3.52 30.888C3.456 30.696 3.456 30.568 3.392 30.504C3.328 30.568 3.2 30.568 3.2 30.632C3.136 30.76 3.2 30.952 3.328 31.144ZM3.712 25.96H3.776L3.712 25.768V25.96ZM16.96 27.176C16.96 26.984 17.024 26.792 16.96 26.6C16.448 25.128 15.872 23.784 15.36 22.312C14.016 18.6 12.736 14.952 11.456 11.176C11.392 10.92 11.328 10.728 11.136 10.28C11.008 10.664 10.816 10.856 10.816 10.984C10.944 12.2 10.88 13.352 11.2 14.568C11.84 16.616 12.608 18.664 13.504 20.648C14.4 22.76 15.424 24.744 16.448 26.792C16.512 26.984 16.832 27.048 16.96 27.176ZM19.52 35.88L19.584 35.688H19.456L19.52 35.88ZM20.032 37.096C20.096 36.904 20.096 36.904 20.16 36.84C20.096 36.776 20.096 36.776 20.032 36.712C20.032 36.776 20.032 36.904 20.032 37.096ZM20.992 38.76C20.992 38.632 20.992 38.504 20.992 38.376C20.864 38.248 20.736 38.12 20.608 37.992C20.608 38.056 20.416 38.12 20.416 38.12C20.672 38.248 20.864 38.312 20.992 38.376C20.992 38.504 20.992 38.632 20.992 38.76ZM29.184 31.336L29.248 31.272L29.056 31.208L29.184 31.336ZM28.928 29.288C29.056 28.904 29.248 28.52 29.44 28.008C29.44 28.008 29.44 28.008 29.44 27.944C29.44 28.008 29.44 28.008 29.44 28.008C29.248 28.52 29.056 28.904 28.928 29.288C28.992 29.48 29.056 29.8 29.056 29.992C29.056 29.8 28.992 29.48 28.928 29.288ZM29.824 26.344C30.4 25.832 30.4 25.128 29.952 24.424C29.952 25.064 29.888 25.704 29.824 26.344ZM30.016 24.296C31.04 23.208 31.104 22.312 30.272 20.84C30.144 21.928 30.08 23.08 30.016 24.296ZM29.504 14.248L29.568 13.992L29.632 14.248H29.504ZM61.3095 19.304C61.6295 19.752 61.7575 20.328 62.0135 20.776C61.5015 20.648 61.0535 20.52 60.5415 20.456C60.2855 20.392 59.9015 20.072 59.6455 20.2C58.8135 20.52 58.1095 20.2 57.4055 19.688C56.7015 19.24 56.1895 19.24 55.6775 19.688C54.5255 20.712 53.2455 21.544 52.4775 22.696C51.0055 25 49.7255 27.432 48.3815 29.928V30.568C48.7655 30.76 49.0855 30.824 49.3415 30.824C51.4535 30.76 53.3095 30.568 55.3575 30.504C55.5495 30.44 55.9975 30.504 56.1895 30.76C56.4455 30.952 56.7655 31.4 56.7015 31.72C56.7015 32.04 56.3175 32.36 55.9975 32.424L50.1735 32.808C49.6615 32.872 49.0855 32.872 48.5735 32.872C47.2935 32.936 46.3975 33.384 46.1415 34.728C45.8215 35.88 45.1815 37.096 45.1175 38.312C44.8615 43.816 45.6935 45.48 46.3335 46.184C46.6535 46.12 46.9735 45.992 47.2935 45.864C51.0695 44.584 54.5895 42.792 57.7255 40.36L58.5575 39.72C59.0695 39.464 60.7975 39.848 60.7335 40.168C60.6695 40.616 60.3495 41 60.0295 41.32C56.8935 44.2 53.3735 46.568 49.2135 48.168C47.9975 48.616 46.5255 48.808 45.1175 48.744C42.4935 48.616 40.4455 47.272 39.2295 44.712C38.5255 43.176 38.0135 41.448 37.3735 39.848C37.5015 37.608 37.3735 35.368 37.6295 33.384C38.2055 28.648 39.6135 24.424 41.7895 20.456C42.6855 18.792 43.9015 17.32 45.2455 16.04C47.9335 13.544 51.3255 13.032 55.1015 15.08C56.9575 16.04 58.7495 17.32 60.4775 18.472C60.7975 18.664 61.1175 19.048 61.3095 19.304ZM46.0775 29.096C46.7175 26.92 47.4215 24.616 48.0615 22.312C46.3335 24.68 45.4375 27.432 44.6055 30.248C44.5415 30.376 44.7975 30.632 44.8615 30.824C44.9895 30.824 45.4375 30.824 45.4375 30.632C45.7575 30.12 45.8855 29.608 46.0775 29.096ZM42.7495 42.536C42.8135 43.176 42.8775 43.752 43.0055 44.2L44.0935 33.448C43.9655 33.448 43.8375 33.512 43.7735 33.576C43.6455 33.704 43.5815 33.96 43.5175 34.28C43.0055 36.968 42.4295 39.72 42.7495 42.536ZM46.9095 46.632H46.8455H46.9095ZM44.8615 33.384H44.7975C44.8615 33.448 44.8615 33.448 44.8615 33.384ZM65.051 33.064C66.011 32.552 65.819 31.528 65.947 30.824C66.715 26.856 67.611 22.888 69.467 19.24C69.851 18.536 70.171 17.64 71.131 17.832C72.283 18.024 73.371 18.28 74.523 18.664C74.523 18.664 74.523 19.176 74.459 19.496C73.435 22.952 72.219 26.344 71.515 29.864C70.683 33.192 70.491 36.712 69.979 40.104C69.915 40.488 70.171 40.936 70.235 41.384C70.619 41.192 71.003 40.872 71.323 40.68L71.387 40.616C71.451 40.872 71.451 41.256 71.451 41.576C71.323 41.576 71.195 41.512 71.131 41.512V41.576C71.259 41.576 71.323 41.576 71.387 41.512C74.139 36.776 77.083 31.976 79.899 27.24C81.307 25.064 82.331 24.552 84.443 24.936C85.467 25.192 85.787 25.576 85.147 26.344C83.803 27.88 84.059 29.544 84.571 31.272C85.403 34.024 86.171 36.968 86.939 39.848C87.003 40.104 87.131 40.424 87.323 40.744C87.451 40.936 87.707 41.192 87.835 41.384C87.899 41.128 88.027 40.808 87.963 40.488C87.451 38.696 87.003 36.776 86.491 34.792C86.107 33.128 85.723 31.528 85.339 29.928C85.275 29.672 85.147 29.544 85.211 29.352C85.275 28.712 85.403 28.264 85.531 27.624C85.787 28.072 86.043 28.52 86.235 29.032C86.811 31.08 87.451 33.256 88.091 35.368C88.283 35.88 88.539 36.264 88.795 36.776C88.859 36.2 89.115 35.752 89.179 35.24C90.715 28.648 92.763 22.12 95.259 15.784C95.963 14.184 96.859 12.648 97.691 11.048C97.755 10.792 98.075 10.344 98.395 10.216C98.779 10.088 99.291 10.152 99.675 10.28C99.739 10.344 99.739 10.984 99.675 11.304C98.715 13.736 97.563 16.168 96.731 18.728C94.427 25.832 92.571 33 91.995 40.424C91.931 41.384 91.739 42.344 91.611 43.368C91.547 43.432 91.675 43.688 91.739 43.88C91.867 43.688 92.123 43.496 92.123 43.368C92.315 42.472 92.571 41.576 92.699 40.68C93.403 34.728 94.939 29.032 96.731 23.272C96.923 22.632 96.923 21.8 97.883 21.608C97.563 22.632 97.179 23.72 96.859 24.808C95.387 30.312 94.235 35.88 93.659 41.576C93.595 42.28 93.403 42.984 93.211 43.688C92.955 44.712 92.443 45.48 91.291 45.672C90.971 45.736 90.587 45.928 90.267 46.056C87.835 47.208 86.171 46.696 84.763 44.392C83.227 42.216 82.523 39.72 81.819 37.16C81.627 36.136 81.371 35.176 81.179 34.344C81.051 33.896 80.795 33.832 80.539 34.216C80.283 34.536 80.091 34.92 79.835 35.368C78.747 37.416 77.595 39.4 76.443 41.32C75.803 42.536 75.035 43.752 74.331 44.84C72.219 48.04 69.467 49.128 65.883 48.424C64.539 48.104 63.579 47.08 63.195 45.8C62.811 44.712 62.555 43.496 62.555 42.408C62.555 36.968 63.451 31.656 65.051 26.536C65.051 26.28 65.371 26.152 65.499 26.024C65.499 26.152 65.563 26.536 65.499 26.664C65.179 27.432 65.243 28.072 65.819 28.712C65.563 30.056 65.435 31.592 65.115 33.064C64.987 34.92 64.667 36.84 64.539 38.696C64.475 38.824 64.603 39.08 64.667 39.336C64.667 39.08 64.795 38.824 64.859 38.568C64.987 37.416 65.115 36.072 65.243 34.856C65.307 34.28 65.115 33.576 65.051 33.064ZM64.539 41.896C64.475 41.96 64.283 42.088 64.283 42.088C64.475 43.368 64.539 44.584 64.667 45.8C64.731 45.864 64.987 45.928 65.051 45.992C65.051 45.864 65.115 45.8 65.115 45.672C65.051 44.52 64.923 43.368 64.667 42.152C64.667 42.088 64.539 41.96 64.539 41.896ZM64.667 40.744L64.539 40.68C64.539 40.744 64.539 40.808 64.539 40.808C64.539 40.872 64.539 40.872 64.603 40.872C64.667 40.872 64.667 40.808 64.667 40.744ZM70.683 42.472V42.344L70.619 42.472H70.683Z" fill="white"/>
<path d="M119.961 41.96C120.601 41.64 121.561 41.768 122.329 41.768C122.457 42.92 121.305 42.792 120.729 43.112C115.033 45.544 109.913 48.872 105.049 52.264C104.345 52.776 103.705 53.416 102.809 53.8C102.489 53.928 101.785 53.8 101.401 53.8C101.529 53.416 101.529 53.032 101.529 52.648C101.593 52.456 101.593 52.2 101.657 51.944C101.337 52.008 101.017 51.944 100.697 52.072C100.249 52.328 99.801 52.712 99.481 53.096C98.521 53.864 97.753 53.928 96.793 53.288C95.833 52.584 95.769 52.008 96.537 50.792C96.857 50.344 97.241 49.704 97.177 49.192C96.409 44.584 97.305 40.168 97.817 35.624C99.097 24.936 100.825 14.44 103.321 4.136C104.281 0.679996 105.049 0.295998 109.017 1.576C111.769 2.6 112.473 3.56 112.089 6.248C111.321 10.664 110.297 15.016 109.529 19.432C108.121 27.24 106.777 34.984 105.305 42.792C105.305 43.048 105.177 43.304 105.177 43.496C105.049 44.904 105.241 45.16 106.713 44.648C108.953 43.816 111.193 42.92 113.497 42.024C114.073 41.768 114.841 41.512 115.545 41.192C115.929 41.128 116.185 41.32 116.569 41.448C116.249 41.64 115.929 41.832 115.609 42.088H115.673C113.817 43.24 111.961 44.2 110.041 45.352C108.441 46.44 106.777 47.528 105.241 48.552C105.049 48.616 105.113 49 105.049 49.192C105.305 49.192 105.561 49.192 105.689 49.128C108.057 47.784 110.297 46.376 112.665 45.16C115.033 43.944 117.529 42.92 119.961 41.96ZM120.888 29.16C120.632 29.416 120.376 29.608 120.248 29.992C119.352 33.192 119.16 36.52 119.736 39.976C119.992 40.872 120.12 41.896 120.184 42.856L120.248 42.92C118.712 41.896 118.328 40.36 117.944 38.696C117.175 35.432 117.559 32.168 118.392 28.968C119.864 23.208 122.36 18.088 127.032 14.248C129.528 12.136 132.472 10.92 135.8 11.688C137.08 11.944 138.296 12.776 139.384 13.48C139.96 13.736 140.472 14.184 140.088 14.952C139.64 15.656 139.256 16.168 138.424 16.104C138.296 16.04 138.104 16.04 137.976 15.976C136.248 15.08 134.968 16.104 133.88 17.192C129.528 21.288 126.968 26.536 125.496 32.232C124.856 34.792 124.6 37.352 124.984 39.912C125.112 40.424 125.112 40.872 125.24 41.384C126.135 44.264 126.392 44.456 128.824 42.344C131.512 39.976 132.856 36.712 134.008 33.448C135.416 29.544 135.544 25.64 133.944 21.736C133.56 20.968 133.752 20.584 134.583 20.584C136.632 20.712 138.296 21.48 138.872 23.656C139.832 26.344 140.152 29.096 139.384 31.72C138.424 35.944 136.888 39.848 133.88 42.92C132.088 44.712 130.104 45.864 127.608 46.12C125.304 46.376 122.168 45.352 121.144 42.088C120.12 38.888 119.799 35.56 120.312 32.168C120.44 31.144 120.632 30.056 120.824 29.096C120.888 28.584 120.888 28.072 120.952 27.496C121.72 27.304 121.336 26.728 121.208 26.216C121.272 26.152 121.336 26.024 121.4 25.832C121.464 25.96 121.592 26.088 121.656 26.152C121.464 26.152 121.336 26.152 121.208 26.216C121.144 26.664 121.08 27.176 121.016 27.624C120.952 28.136 120.888 28.648 120.888 29.16ZM146.372 18.472C146.82 22.824 147.204 27.24 147.652 31.592C147.652 32.36 147.972 33.064 148.164 33.896C148.484 33.192 148.868 32.616 149.124 31.976C151.94 25.576 155.46 19.56 159.62 14.056C161.028 12.264 162.756 10.6 164.612 9C165.892 7.784 167.556 7.912 169.156 8.232C170.052 8.36 170.308 9.128 169.668 9.576C165.764 12.904 163.332 17.32 160.964 21.672C158.788 25.768 156.676 29.992 154.884 34.216C153.604 37.416 152.772 40.744 152.004 43.944C151.684 45.16 151.428 46.056 150.084 46.312C149.316 46.44 148.548 46.76 147.78 46.76C147.012 46.824 146.372 46.44 146.18 45.608C144.004 38.952 142.276 32.168 141.636 25.064C141.252 20.392 140.739 15.784 140.931 11.176C141.059 9.192 141.188 9.064 142.916 9C143.556 8.936 144.196 9 144.708 9.064C146.372 9.384 146.628 9.576 146.692 11.432C146.692 13.736 146.692 16.104 146.692 18.472C146.564 18.472 146.5 18.472 146.372 18.472ZM183.935 19.304C184.255 19.752 184.383 20.328 184.639 20.776C184.127 20.648 183.679 20.52 183.167 20.456C182.911 20.392 182.527 20.072 182.271 20.2C181.439 20.52 180.735 20.2 180.031 19.688C179.327 19.24 178.815 19.24 178.303 19.688C177.151 20.712 175.871 21.544 175.103 22.696C173.631 25 172.351 27.432 171.007 29.928V30.568C171.391 30.76 171.711 30.824 171.967 30.824C174.079 30.76 175.935 30.568 177.983 30.504C178.175 30.44 178.623 30.504 178.815 30.76C179.071 30.952 179.391 31.4 179.327 31.72C179.327 32.04 178.943 32.36 178.623 32.424L172.799 32.808C172.287 32.872 171.711 32.872 171.199 32.872C169.919 32.936 169.023 33.384 168.767 34.728C168.447 35.88 167.807 37.096 167.743 38.312C167.487 43.816 168.319 45.48 168.959 46.184C169.279 46.12 169.599 45.992 169.919 45.864C173.695 44.584 177.215 42.792 180.351 40.36L181.183 39.72C181.695 39.464 183.423 39.848 183.359 40.168C183.295 40.616 182.975 41 182.655 41.32C179.519 44.2 175.999 46.568 171.839 48.168C170.623 48.616 169.151 48.808 167.743 48.744C165.119 48.616 163.071 47.272 161.855 44.712C161.151 43.176 160.639 41.448 159.998 39.848C160.127 37.608 159.998 35.368 160.255 33.384C160.831 28.648 162.239 24.424 164.415 20.456C165.311 18.792 166.527 17.32 167.871 16.04C170.559 13.544 173.951 13.032 177.727 15.08C179.583 16.04 181.375 17.32 183.103 18.472C183.423 18.664 183.743 19.048 183.935 19.304ZM168.703 29.096C169.343 26.92 170.047 24.616 170.687 22.312C168.959 24.68 168.062 27.432 167.231 30.248C167.167 30.376 167.423 30.632 167.487 30.824C167.615 30.824 168.062 30.824 168.062 30.632C168.383 30.12 168.51 29.608 168.703 29.096ZM165.375 42.536C165.439 43.176 165.503 43.752 165.631 44.2L166.719 33.448C166.591 33.448 166.463 33.512 166.399 33.576C166.271 33.704 166.207 33.96 166.143 34.28C165.631 36.968 165.055 39.72 165.375 42.536ZM169.535 46.632H169.47H169.535ZM167.487 33.384H167.423C167.487 33.448 167.487 33.448 167.487 33.384Z" fill="#D3051D"/>
</svg>
