<svg xmlns="http://www.w3.org/2000/svg" version="1.0" width="1920.000000pt" height="247.000000pt" viewBox="0 0 1920.000000 247.000000" preserveAspectRatio="xMidYMid meet" transform="matrix(1, 0, 0, -1, 0, 0)">

<g transform="translate(0.000000,247.000000) scale(0.100000,-0.100000)" fill="#000000" stroke="none">
<path d="M0 2070 l0 -400 24 0 c14 0 28 -4 31 -10 3 -5 17 -10 31 -10 36 0 93 -26 120 -55 21 -23 31 -25 91 -24 190 3 310 44 349 118 10 19 36 52 56 72 36 34 38 40 38 97 0 54 3 65 30 92 16 16 34 30 40 30 5 0 10 5 10 11 0 24 66 69 102 69 15 0 30 5 33 10 3 6 19 10 36 10 16 0 29 4 29 10 0 5 12 12 28 16 15 3 36 9 47 14 80 33 102 42 117 50 10 6 24 10 33 10 21 0 103 28 165 57 70 32 89 40 120 48 14 4 41 14 60 22 29 13 61 15 203 9 93 -4 176 -11 185 -16 9 -5 46 -23 82 -40 77 -37 103 -52 112 -65 5 -6 129 -10 337 -10 250 0 333 -3 343 -13 6 -6 20 -12 31 -12 10 0 37 -11 60 -23 23 -13 54 -27 70 -31 15 -3 27 -11 27 -16 0 -6 11 -10 24 -10 14 0 28 -4 31 -10 3 -5 20 -10 36 -10 17 0 38 -4 48 -9 9 -5 46 -14 82 -20 161 -26 182 -30 192 -40 6 -6 23 -11 38 -11 15 0 40 -7 55 -15 16 -8 37 -15 46 -15 9 0 20 -4 23 -10 3 -5 14 -10 24 -10 10 0 32 -7 47 -15 16 -8 39 -15 52 -15 12 0 22 -3 22 -7 0 -5 28 -16 63 -26 34 -10 70 -23 79 -28 10 -5 28 -9 40 -9 13 -1 34 -7 48 -15 14 -8 35 -14 48 -15 12 0 22 -4 22 -8 0 -5 17 -17 37 -28 20 -10 46 -28 58 -40 11 -11 35 -29 53 -39 17 -11 32 -23 32 -27 0 -17 68 -41 124 -43 87 -4 219 -25 231 -36 5 -5 19 -9 31 -9 11 0 43 -12 70 -27 27 -14 76 -41 109 -59 33 -18 80 -43 105 -55 64 -30 89 -57 96 -101 6 -36 9 -38 43 -38 38 -1 81 -28 81 -53 0 -20 33 -47 58 -47 12 0 31 -10 44 -23 25 -24 70 -42 133 -53 41 -7 105 -47 105 -66 0 -17 33 -37 60 -38 14 0 36 12 49 25 17 19 29 24 45 18 22 -7 25 -7 93 3 32 4 46 2 58 -10 9 -9 22 -16 30 -16 7 0 15 -3 17 -7 2 -5 17 -16 35 -25 41 -24 174 -25 197 -3 8 8 32 15 54 15 26 0 42 5 46 15 3 8 15 15 27 15 12 0 30 9 40 21 15 18 32 21 125 25 99 4 108 6 126 29 22 28 50 32 90 11 17 -9 42 -12 67 -9 61 8 106 -4 121 -32 18 -33 56 -33 86 0 39 42 64 29 64 -35 0 -16 5 -41 10 -56 7 -18 7 -30 0 -39 -7 -8 -4 -18 10 -33 25 -27 25 -42 0 -42 -11 0 -20 5 -20 10 0 13 -43 13 -56 0 -7 -7 -21 -1 -42 18 -25 23 -32 37 -32 65 0 25 -5 37 -14 37 -8 0 -16 -4 -18 -8 -1 -5 -16 -15 -33 -23 -21 -10 -31 -23 -33 -42 -2 -15 1 -27 5 -27 5 0 19 -18 32 -40 12 -22 30 -45 39 -52 9 -7 23 -25 31 -41 21 -40 90 -77 144 -77 24 0 66 -7 93 -15 76 -23 95 -20 132 25 40 48 40 61 2 83 -17 10 -30 22 -30 27 0 5 -12 7 -27 4 -22 -4 -35 2 -60 26 -18 17 -33 33 -33 36 0 15 44 44 68 44 20 0 32 8 45 30 10 16 22 30 28 30 5 0 9 12 9 28 0 29 23 55 58 66 14 5 26 -1 42 -21 19 -24 29 -28 91 -31 38 -2 69 -8 69 -13 0 -5 7 -9 16 -9 23 0 12 -76 -22 -147 -34 -73 -27 -113 21 -113 20 0 35 6 39 15 7 18 57 20 74 3 9 -9 15 -9 24 0 7 7 19 12 28 12 8 0 23 9 33 20 9 11 25 20 36 20 31 0 52 43 45 90 -5 30 -3 40 7 42 8 0 19 2 24 3 6 2 16 3 23 4 17 1 15 76 -3 95 -22 21 -18 55 10 105 24 42 33 81 17 81 -18 0 -72 60 -66 74 3 8 -2 29 -12 45 -14 24 -16 35 -7 53 6 13 14 31 17 42 4 12 12 16 24 13 68 -22 65 -23 60 12 -4 26 0 36 21 52 62 46 85 65 97 76 7 7 22 13 33 13 16 0 21 6 21 28 0 15 6 36 14 47 7 11 16 32 20 47 8 34 20 37 134 39 51 1 95 6 98 11 3 4 34 8 70 8 35 0 72 4 82 10 9 5 44 14 77 19 33 6 73 13 88 17 16 4 46 1 69 -7 31 -10 44 -10 59 -1 10 7 27 12 37 12 10 0 41 11 68 25 43 22 62 25 152 25 56 0 102 -3 102 -7 0 -7 44 -29 110 -55 14 -6 37 -17 52 -24 14 -8 33 -14 42 -14 9 0 16 -3 16 -8 0 -4 20 -18 45 -32 25 -14 45 -28 45 -32 0 -5 7 -8 15 -8 8 0 15 -4 15 -9 0 -5 11 -12 25 -15 14 -4 25 -11 25 -16 0 -6 6 -10 13 -10 24 0 76 -31 97 -57 11 -14 20 -39 20 -56 0 -35 32 -67 67 -67 13 0 37 14 55 30 17 17 40 30 51 30 18 0 87 62 87 78 0 14 65 40 111 47 35 4 49 2 59 -10 7 -8 21 -15 31 -15 10 0 21 -5 24 -10 4 -7 11 -7 18 -2 16 12 111 42 135 42 11 0 36 7 55 15 20 8 43 12 51 9 9 -3 16 -1 16 5 0 6 7 11 15 11 8 0 28 18 43 40 15 21 33 39 40 40 6 0 12 5 12 10 0 6 27 10 60 10 33 0 60 -4 60 -10 0 -5 21 -10 46 -10 55 0 83 -27 84 -78 0 -24 6 -35 24 -44 31 -13 56 -4 56 21 0 12 -9 21 -25 25 -44 11 -24 76 23 76 22 0 46 -25 48 -49 3 -49 4 -51 33 -51 22 0 32 6 37 22 4 13 2 24 -5 26 -6 2 -11 15 -11 28 0 21 4 24 40 24 22 0 40 -4 40 -9 0 -5 11 -12 25 -15 21 -5 25 -12 25 -41 0 -19 4 -35 8 -35 4 0 26 -17 48 -37 32 -31 46 -38 79 -38 36 0 40 -3 43 -27 3 -23 8 -28 32 -28 23 0 33 8 50 38 26 45 59 70 70 52 12 -20 44 -6 60 26 20 42 39 59 83 75 32 11 39 11 51 -1 13 -13 12 -20 -3 -54 -32 -68 -26 -80 50 -91 46 -7 83 -21 120 -44 59 -37 121 -50 143 -32 10 9 20 9 33 3 14 -8 25 -6 43 8 33 25 25 33 -47 42 -7 1 -13 5 -13 10 0 5 -4 6 -10 3 -22 -14 -7 11 20 32 26 21 31 22 67 9 34 -12 43 -12 74 3 47 22 172 50 244 54 61 4 96 -6 127 -34 10 -8 42 -25 72 -38 l54 -22 41 25 c46 30 58 31 85 11 25 -19 74 -19 119 0 21 9 67 15 107 15 39 0 80 5 91 11 11 5 89 11 174 12 132 2 157 0 171 -15 36 -36 18 -76 -60 -132 -14 -10 -26 -23 -26 -29 0 -5 -11 -20 -25 -33 -28 -26 -33 -59 -10 -68 17 -6 21 -56 5 -56 -5 0 -10 -9 -10 -20 0 -25 8 -25 40 0 14 11 30 20 37 20 7 0 22 14 35 30 12 17 30 30 40 30 10 0 18 5 18 10 0 6 7 10 15 10 8 0 15 5 15 10 0 6 5 10 10 10 6 0 10 -18 10 -40 0 -22 -4 -40 -10 -40 -5 0 -10 -5 -10 -11 0 -6 9 -8 22 -3 23 7 48 28 48 39 0 10 22 28 51 43 14 7 38 25 55 40 38 36 101 82 110 82 4 0 17 11 30 25 33 35 75 34 97 -4 9 -16 17 -38 17 -49 0 -11 3 -27 6 -36 7 -18 39 -22 49 -6 3 6 13 10 20 10 14 0 125 -66 135 -81 9 -12 82 -39 107 -39 14 0 43 15 66 35 36 31 47 35 98 35 32 0 61 -5 64 -10 3 -6 30 -10 58 -10 36 0 68 -8 101 -25 27 -14 64 -25 82 -25 18 0 35 -4 38 -9 3 -5 18 -12 33 -16 16 -3 39 -17 53 -30 14 -13 34 -25 45 -27 13 -2 22 -13 25 -32 6 -34 26 -45 33 -19 4 14 5 13 6 -4 1 -17 7 -23 25 -23 14 0 28 -5 31 -10 3 -5 33 -10 66 -10 33 0 59 -4 59 -10 0 -5 7 -10 15 -10 8 0 27 -14 42 -31 29 -33 31 -33 123 -9 25 6 49 15 55 21 21 21 44 9 51 -28 10 -51 49 -105 90 -121 19 -8 34 -20 34 -28 0 -8 9 -14 19 -14 11 0 22 -4 25 -9 3 -5 18 -12 32 -15 34 -9 48 -24 65 -69 7 -20 16 -37 21 -37 4 0 25 -18 47 -40 22 -22 45 -40 51 -40 16 0 49 -41 50 -62 0 -24 32 -77 50 -83 23 -7 43 -46 45 -88 3 -41 27 -69 103 -114 36 -22 46 -23 74 -14 17 6 49 11 71 11 27 0 48 8 69 25 16 14 37 25 46 25 25 0 2 17 -36 27 l-32 8 29 33 c25 27 37 32 75 32 25 0 46 5 46 10 0 6 15 10 34 10 33 0 66 21 66 41 0 6 13 24 29 40 25 24 37 29 80 29 28 0 51 -4 51 -9 0 -12 63 11 73 26 10 15 36 17 57 3 13 -9 13 -11 0 -20 -12 -8 -13 -11 -1 -19 16 -10 191 -8 209 3 17 10 15 33 -4 40 -25 9 -6 26 30 26 25 0 35 6 44 24 6 13 24 32 41 42 17 10 31 23 31 29 0 20 49 55 76 55 20 0 24 -4 19 -19 -11 -34 4 -51 46 -51 21 0 39 4 39 10 0 5 22 17 50 27 27 10 50 21 50 24 0 11 151 9 171 -2 24 -13 185 7 216 27 33 21 55 17 80 -12 20 -23 27 -25 75 -21 127 11 200 48 228 114 12 29 59 60 68 46 4 -7 19 -14 34 -18 21 -5 31 -1 49 19 25 29 73 56 98 56 38 -1 51 -25 51 -93 0 -36 4 -68 9 -71 5 -3 21 6 35 19 34 31 54 32 58 2 3 -20 9 -22 77 -25 49 -2 77 1 81 9 5 8 14 5 29 -10 30 -30 38 -26 44 21 3 24 11 44 16 46 6 2 11 8 11 14 0 6 11 21 25 34 25 23 36 84 16 84 -13 0 -24 55 -16 80 4 12 15 20 29 20 12 0 26 3 29 6 7 7 -29 63 -52 80 -10 8 -12 21 -7 47 5 29 1 47 -21 89 -41 76 -31 102 29 79 34 -12 82 12 108 54 32 52 48 65 78 65 16 0 41 12 60 29 17 16 40 32 50 35 10 3 33 24 51 46 21 26 41 40 56 40 19 0 25 8 35 49 6 27 18 58 25 68 12 14 14 74 15 291 l0 272 -9600 0 -9600 0 0 -400z m13395 -537 c-13 -55 -45 -72 -45 -25 0 30 16 52 38 52 10 0 12 -7 7 -27z m1425 -175 c0 -16 -3 -19 -11 -11 -6 6 -8 16 -5 22 11 17 16 13 16 -11z m306 -73 c10 -8 27 -15 37 -15 24 0 22 -20 -3 -20 -11 0 -20 -7 -20 -15 0 -8 -7 -15 -15 -15 -8 0 -15 -5 -15 -11 0 -6 -16 -9 -37 -7 -31 2 -39 7 -41 27 -2 12 -1 34 2 47 5 19 13 24 39 24 18 0 42 -7 53 -15z m-7442 -54 c3 -4 -3 -16 -13 -25 -21 -19 -37 -7 -27 19 6 16 32 20 40 6z m-610 -25 c32 -29 32 -41 1 -82 -14 -18 -25 -40 -25 -49 0 -11 -7 -15 -22 -13 -18 2 -24 11 -26 38 -2 19 -7 37 -11 40 -4 3 -11 19 -14 37 -5 25 -2 35 11 42 28 17 60 12 86 -13z m9500 -342 c24 -9 22 -80 -3 -94 -13 -7 -22 -7 -26 0 -6 9 4 100 10 100 2 0 10 -3 19 -6z" fill="#000000"/>
<path d="M12618 1579 c-24 -14 -23 -49 1 -49 24 0 45 25 37 45 -6 17 -14 18 -38 4z" fill="#000000"/>
<path d="M12607 1503 c-3 -5 -1 -18 4 -30 7 -19 16 -23 54 -23 56 0 59 18 6 43 -41 19 -57 21 -64 10z" fill="#000000"/>
<path d="M12535 1437 c-7 -18 27 -57 50 -57 9 0 15 9 15 25 0 17 -5 25 -18 25 -10 0 -23 5 -30 12 -9 9 -13 8 -17 -5z" fill="#000000"/>
<path d="M7850 1365 c0 -29 15 -33 29 -6 11 20 5 31 -16 31 -7 0 -13 -11 -13 -25z" fill="#000000"/>
</g>
</svg>