<?xml version="1.0" standalone="no"?>
<!DOCTYPE svg PUBLIC "-//W3C//DTD SVG 20010904//EN"
 "http://www.w3.org/TR/2001/REC-SVG-20010904/DTD/svg10.dtd">
<svg version="1.0" xmlns="http://www.w3.org/2000/svg"
 width="1920.000000pt" height="180.000000pt" viewBox="0 0 1920.000000 180.000000"
 preserveAspectRatio="xMidYMid meet">

<g transform="translate(0.000000,180.000000) scale(0.100000,-0.100000)"
fill="#000000" stroke="none">
<path d="M0 1670 l0 -130 24 0 c14 0 28 -4 31 -10 3 -5 17 -10 31 -10 35 0 93
-26 122 -56 29 -28 66 -30 227 -12 107 13 181 51 211 108 11 19 35 49 54 67
32 29 35 37 40 102 l5 71 -372 0 -373 0 0 -130z"/>
<path d="M3675 1790 c3 -5 22 -12 43 -16 20 -4 39 -10 42 -13 3 -3 32 -14 65
-25 33 -10 68 -22 77 -27 10 -5 28 -9 40 -9 13 -1 34 -7 48 -15 14 -8 35 -14
48 -15 12 0 22 -4 22 -8 0 -5 17 -17 37 -28 20 -10 46 -28 58 -40 11 -11 35
-29 53 -39 17 -11 32 -23 32 -27 0 -17 68 -41 124 -43 82 -4 207 -23 228 -35
10 -6 26 -10 37 -10 18 0 79 -28 91 -41 3 -3 36 -21 73 -40 197 -99 205 -105
213 -161 6 -36 9 -38 43 -38 38 -1 81 -28 81 -53 0 -20 33 -47 57 -47 11 0 31
-10 44 -21 31 -28 73 -45 129 -54 45 -7 110 -47 110 -67 0 -17 32 -37 60 -38
14 0 34 11 47 26 20 24 25 25 54 15 21 -7 37 -7 49 -1 24 13 90 13 90 1 0 -5
10 -13 23 -17 12 -4 24 -9 27 -13 3 -3 19 -14 37 -23 41 -24 174 -25 197 -3 8
8 32 15 54 15 26 0 42 5 46 15 3 8 14 15 24 15 10 0 29 10 41 22 20 18 38 22
128 25 98 3 107 5 125 28 22 28 44 31 91 11 22 -9 48 -11 78 -7 53 8 105 -9
114 -39 9 -28 51 -26 79 5 29 31 54 32 60 3 9 -46 18 -104 20 -137 1 -19 7
-36 14 -39 20 -6 14 -32 -8 -32 -11 0 -20 5 -20 10 0 13 -43 13 -56 0 -7 -7
-21 -1 -42 18 -25 23 -32 37 -32 66 0 21 -3 36 -7 34 -5 -3 -27 -13 -50 -23
-36 -15 -43 -23 -43 -46 0 -15 4 -29 8 -31 5 -1 23 -24 41 -50 17 -27 36 -48
41 -48 6 0 10 -6 10 -12 1 -41 90 -98 152 -98 25 0 67 -7 94 -15 76 -23 95
-20 132 25 39 47 40 63 7 78 -14 7 -28 18 -31 26 -4 10 -15 14 -32 10 -27 -4
-74 27 -84 56 -7 21 28 50 60 50 20 0 32 8 45 30 10 16 22 30 28 30 5 0 9 12
9 28 0 29 23 55 58 66 14 5 26 -1 42 -21 19 -24 29 -28 91 -31 38 -2 69 -8 69
-13 0 -5 7 -9 16 -9 23 0 12 -76 -22 -147 -34 -73 -27 -113 21 -113 20 0 35 6
39 15 7 20 60 19 77 -1 11 -14 13 -14 21 0 5 9 17 16 26 16 10 0 25 9 35 20 9
11 25 20 36 20 31 0 52 43 45 90 -5 30 -3 40 7 42 8 0 19 2 24 3 6 2 16 3 23
4 17 1 15 76 -3 95 -22 22 -18 61 10 106 24 38 33 80 17 80 -15 0 -73 60 -67
70 3 5 -2 26 -11 45 -13 28 -14 41 -6 58 5 12 13 30 16 41 5 14 12 17 29 11
45 -13 52 -11 52 19 1 21 9 36 30 50 16 12 45 36 65 53 19 18 45 33 58 33 18
0 22 6 22 29 0 16 7 36 15 45 8 8 15 24 15 35 0 38 26 51 108 53 42 0 87 0 99
-1 12 -1 24 3 28 9 3 5 35 10 71 10 35 0 72 4 82 10 9 5 44 14 77 19 33 6 73
13 88 17 16 4 46 1 69 -7 31 -10 44 -10 59 -1 10 7 27 12 37 12 10 0 41 11 68
25 43 22 62 25 152 25 56 0 102 -3 102 -7 0 -7 44 -29 110 -55 14 -6 37 -17
52 -24 14 -8 33 -14 42 -14 9 0 16 -3 16 -8 0 -4 20 -18 45 -32 25 -14 45 -28
45 -32 0 -5 7 -8 15 -8 8 0 15 -4 15 -9 0 -5 11 -12 25 -15 14 -4 25 -11 25
-16 0 -6 11 -10 25 -10 14 0 25 -4 25 -10 0 -5 6 -10 14 -10 24 0 66 -59 66
-91 0 -37 19 -57 58 -65 24 -5 36 0 62 25 18 17 42 31 53 31 18 0 87 62 87 78
0 13 64 40 109 46 30 5 49 2 60 -7 29 -25 66 -27 127 -7 33 11 69 20 80 20 12
0 38 7 57 15 20 8 43 12 51 9 9 -3 16 -1 16 5 0 6 6 11 14 11 8 0 27 18 43 40
15 22 34 40 41 40 6 0 12 5 12 10 0 6 27 10 60 10 33 0 60 -4 60 -10 0 -5 21
-10 46 -10 52 0 83 -26 84 -72 0 -33 26 -60 54 -56 32 5 34 44 2 52 -45 11
-26 76 22 76 20 0 54 -31 51 -46 -7 -38 2 -54 30 -54 22 0 32 6 37 22 4 13 2
24 -5 26 -6 2 -11 15 -11 28 0 21 4 24 40 24 22 0 40 -4 40 -9 0 -5 10 -11 23
-13 18 -2 23 -10 25 -40 2 -21 7 -38 11 -38 4 0 25 -17 47 -37 32 -31 46 -38
79 -38 36 0 40 -3 43 -27 3 -23 8 -28 32 -28 23 0 33 8 50 38 26 45 59 70 70
52 12 -20 44 -6 60 26 20 42 39 59 83 75 33 11 39 11 54 -3 15 -16 15 -19 0
-42 -19 -28 -31 -83 -20 -89 5 -3 34 -8 66 -11 69 -8 86 -14 111 -37 35 -34
83 -49 149 -49 46 0 70 5 81 16 24 24 20 33 -24 50 -45 18 -46 20 -25 40 12
12 28 14 70 9 41 -6 61 -4 78 8 31 20 105 37 215 49 l93 10 46 -36 c26 -20 56
-36 68 -36 12 0 25 -3 29 -7 13 -13 40 -12 68 5 15 9 28 20 28 24 0 11 48 10
55 -2 12 -19 81 -31 112 -18 15 6 66 15 113 19 47 4 123 13 170 19 201 27 300
11 300 -50 0 -22 -10 -40 -37 -65 -20 -19 -43 -35 -49 -35 -7 0 -16 -10 -20
-22 -4 -13 -18 -32 -31 -44 -25 -22 -24 -48 4 -58 11 -5 14 -15 9 -41 -7 -33
5 -48 19 -25 3 6 15 10 25 10 10 0 26 13 36 28 9 16 34 39 55 52 36 23 38 27
36 72 -2 37 2 50 18 62 33 25 38 19 30 -36 -9 -68 -9 -107 -2 -115 9 -9 95 37
128 68 42 41 95 79 108 79 7 0 23 12 36 26 18 19 32 25 55 22 36 -3 55 -31 65
-90 4 -29 11 -38 25 -38 11 0 20 5 20 10 0 6 14 10 30 10 17 0 30 -4 30 -9 0
-5 11 -12 25 -15 13 -3 39 -20 56 -37 32 -31 94 -59 131 -59 11 0 38 16 61 35
33 28 49 35 84 35 78 0 187 -21 234 -46 26 -13 61 -24 77 -24 17 0 33 -4 37
-9 3 -5 18 -12 34 -16 16 -3 39 -17 51 -31 13 -13 34 -24 47 -24 18 0 23 -6
23 -24 0 -34 25 -56 65 -56 19 0 37 -4 40 -10 3 -5 33 -10 66 -10 33 0 59 -4
59 -10 0 -5 7 -10 15 -10 8 0 27 -13 42 -30 26 -30 66 -40 78 -20 3 6 18 10
33 10 15 0 40 7 56 15 43 23 54 19 62 -21 10 -55 52 -112 87 -120 16 -3 31
-14 34 -23 3 -10 27 -25 56 -36 62 -22 70 -30 88 -78 7 -20 16 -37 21 -37 4 0
25 -18 47 -40 22 -22 45 -40 51 -40 16 0 49 -41 50 -62 0 -24 32 -77 50 -83
23 -7 43 -46 45 -87 3 -43 27 -71 100 -114 39 -23 49 -25 77 -15 17 6 49 11
70 11 27 0 50 8 72 25 18 14 38 25 44 25 27 0 9 18 -23 24 -42 8 -43 15 -10
50 19 21 33 26 70 26 25 0 45 5 45 10 0 6 15 10 34 10 33 0 66 21 66 41 0 6
13 24 29 40 25 24 38 29 79 29 31 0 52 -5 55 -13 4 -9 7 -9 18 0 7 7 21 13 30
13 9 0 19 7 23 15 6 17 34 19 56 5 13 -9 13 -11 0 -20 -28 -19 8 -27 103 -25
51 2 98 3 105 4 14 1 17 41 2 41 -5 0 -10 7 -10 15 0 10 10 15 33 15 25 0 36
6 49 28 9 15 28 34 42 42 14 7 26 19 26 25 0 6 12 21 26 34 27 23 71 25 66 2
-7 -34 9 -51 49 -51 21 0 39 4 39 10 0 5 23 17 50 27 28 10 50 21 50 24 0 11
151 9 171 -2 24 -13 185 7 216 27 33 21 55 17 80 -12 20 -23 27 -25 75 -21 70
6 148 26 148 38 0 5 7 9 16 9 18 0 50 34 64 67 12 29 59 60 68 46 4 -7 19 -14
34 -18 21 -5 31 -1 49 19 25 29 73 56 98 56 38 -1 51 -25 51 -93 0 -36 4 -68
9 -71 5 -3 21 6 35 19 34 32 52 32 60 0 6 -24 10 -25 74 -25 37 0 73 5 79 11
8 8 17 6 34 -10 31 -29 36 -27 42 21 3 24 11 44 16 46 6 2 11 8 11 14 0 6 11
21 25 34 29 27 32 60 8 101 -22 39 -11 83 21 83 12 0 26 3 29 6 7 7 -29 63
-52 80 -10 8 -12 21 -7 47 5 29 1 47 -21 89 -41 77 -31 102 31 78 34 -12 79
11 106 56 32 51 48 64 78 64 16 0 41 12 60 29 17 16 40 32 50 35 10 3 33 24
51 46 21 25 41 40 56 40 19 0 25 8 34 48 7 26 19 57 27 70 l14 22 -7765 0
c-4966 0 -7764 -3 -7760 -10z m11451 -635 c10 -8 30 -15 43 -15 20 0 21 -2 11
-15 -7 -8 -19 -15 -26 -15 -8 0 -14 -4 -14 -10 0 -5 -7 -10 -15 -10 -8 0 -15
-5 -15 -11 0 -6 -16 -9 -37 -7 -31 2 -39 7 -41 27 -2 12 -1 34 2 47 5 19 13
24 39 24 18 0 42 -7 53 -15z m-7442 -54 c3 -4 -3 -16 -13 -25 -21 -19 -37 -7
-27 19 6 16 32 20 40 6z m-610 -25 c32 -29 32 -41 1 -82 -14 -18 -25 -40 -25
-49 0 -11 -7 -15 -22 -13 -18 2 -24 11 -26 38 -2 19 -7 37 -11 40 -4 3 -11 19
-14 37 -5 25 -2 35 11 42 28 17 60 12 86 -13z m9500 -342 c24 -9 22 -80 -3
-94 -13 -7 -22 -7 -26 0 -6 9 4 100 10 100 2 0 10 -3 19 -6z"/>
<path d="M12620 1440 c0 -5 7 -10 15 -10 8 0 15 5 15 10 0 6 -7 10 -15 10 -8
0 -15 -4 -15 -10z"/>
<path d="M12616 1362 c6 -4 13 -14 16 -23 4 -11 15 -15 37 -11 32 4 33 22 1
22 -10 0 -22 5 -25 10 -3 6 -14 10 -23 10 -10 0 -13 -3 -6 -8z"/>
<path d="M12540 1291 c0 -12 29 -23 41 -15 5 3 7 10 4 15 -8 12 -45 12 -45 0z"/>
<path d="M7850 1235 c0 -29 15 -33 29 -6 11 20 5 31 -16 31 -7 0 -13 -11 -13
-25z"/>
</g>
</svg>
